<svg width="24" height="24" viewBox="0 0 24 24" fill="none" xmlns="http://www.w3.org/2000/svg">
<path d="M7.08606 20.9996V8.85458H3.22744V20.9996H7.08647H7.08606ZM5.15756 7.19667C6.50286 7.19667 7.3404 6.26408 7.3404 5.0986C7.31522 3.90656 6.50286 3 5.18314 3C3.86252 3 3 3.90656 3 5.09849C3 6.26397 3.83724 7.19656 5.13228 7.19656H5.15726L5.15756 7.19667ZM9.22187 20.9996H13.0802V14.218C13.0802 13.8555 13.1054 13.492 13.2073 13.2331C13.4861 12.5076 14.121 11.7566 15.1872 11.7566C16.583 11.7566 17.1418 12.8702 17.1418 14.503V20.9996H21V14.036C21 10.3057 19.0967 8.56985 16.5581 8.56985C14.4768 8.56985 13.5627 9.78686 13.0548 10.6158H13.0805V8.855H9.22207C9.27243 9.99434 9.22177 21 9.22177 21L9.22187 20.9996Z" fill="white"/>
</svg>
